<?xml version="1.0" encoding="UTF-8"?>
<!-- Generator: Adobe Illustrator 16.0.3, SVG Export Plug-In . SVG Version: 6.00 Build 0)  -->
<!DOCTYPE svg PUBLIC "-//W3C//DTD SVG 1.1//EN" "http://www.w3.org/Graphics/SVG/1.1/DTD/svg11.dtd">
<svg version="1.1" id="Capa_1" xmlns="http://www.w3.org/2000/svg" xmlns:xlink="http://www.w3.org/1999/xlink" x="0px" y="0px" width="74px" height="85.001px" viewBox="0 0 74 85.001" enable-background="new 0 0 74 85.001" xml:space="preserve">
<g>
	<path fill-rule="evenodd" clip-rule="evenodd" fill="#FFFFFF" d="M40.16,27.36c-3.79-2.65-9.51-3.94-17.25-3.94   c-4,0-6.93,0.3-9.85,1.05c-2.86,0.75-5.21,1.72-7.13,3.01c-1.89,1.31-3.3,2.84-4.17,4.54c-0.91,1.72-1.32,3.64-1.32,5.57v3.32   h11.51v-0.6c0-2.06,0.7-4.15,2.11-5.56c1.29-1.35,4.51-2.16,8.85-2.15c2.11-0.01,3.87,0.21,5.271,0.58   c1.36,0.41,2.51,0.95,3.24,1.53c0.81,0.65,1.39,1.32,1.68,1.97c0.31,0.7,0.46,1.44,0.46,2.08v2.7c0,0.83-0.21,2.32-0.51,3.07   c-0.271,0.67-0.61,1.7-1.101,2.19c-0.59,0.54-0.93,0.829-1.42,1.1c-0.81,0.431-1.05,0.511-1.71,0.75   c-0.67,0.261-1.03,0.37-2.62,0.62c-1.41,0.21-14.38,1.82-15.939,2.301C7.01,52.46,4.43,54.221,2.66,56.62   c-1.8,2.42-2.66,5.94-2.66,8.9v5.3c0,1.421,0.28,2.95,0.85,4.64c0.66,1.771,1.86,3.281,3.55,4.701   c1.73,1.409,4.08,2.549,7.02,3.479c2.98,0.93,6.79,1.36,11.49,1.36c4.69,0,8.45-0.431,11.431-1.36c2.939-0.931,5.29-2.07,7.02-3.47   c1.69-1.43,2.9-2.94,3.54-4.7c0.63-1.69,0.9-3.229,0.9-4.65V37.59C45.82,33.521,43.91,30.021,40.16,27.36z M33.73,67.221   c0,2.8-0.8,4.94-2.41,6.45c-1.65,1.51-4.67,2.27-9.22,2.27c-4.4,0-7.43-0.71-9.08-2.18c-1.6-1.42-2.3-3.17-2.3-6.15   c0-1.46,0.16-2.66,0.88-4.04c0.54-1.05,1.1-1.78,1.91-2.409c1.02-0.711,2.16-1.311,3.43-1.591c2.36-0.521,12.07-0.979,13.4-1.39   c0.62-0.17,1.33-0.32,2.09-0.76c0.75-0.4,1.12-0.871,1.3-1.621V67.221z"/>
	<path fill-rule="evenodd" clip-rule="evenodd" fill="#F3AE00" d="M49.11,23.38c1.63-7.64,18.32-4.33,23.48-10.52   c1.29-1.54,2.319-6.16,0.16-9.35c-1.16-1.7-2.6-2.73-5.63-3.14c-3.46-0.47-7.01-0.5-10.49-0.05c-4.76,0.61-7.57,3.45-7.57,9.12   C49.06,10.46,49.1,23.411,49.11,23.38z"/>
</g>
</svg>